<svg width="1024" height="1024" viewBox="0 0 1024 1024" fill="none" xmlns="http://www.w3.org/2000/svg">
<path d="M256 955.405C178.166 910.468 113.532 845.834 68.595 768C23.6576 690.166 -7.8571e-06 601.875 0 512L204.8 512C204.8 565.925 218.995 618.9 245.957 665.6C272.919 712.3 311.7 751.081 358.4 778.043L256 955.405Z" fill="#C956F1"/>
<path d="M768 955.405C690.166 1000.34 601.875 1024 512 1024C422.125 1024 333.834 1000.34 256 955.405L358.4 778.043C405.1 805.005 458.075 819.2 512 819.2C565.925 819.2 618.9 805.005 665.6 778.043L768 955.405Z" fill="#56B9F1"/>
<path d="M1024 512C1024 601.875 1000.34 690.166 955.405 768C910.468 845.834 845.834 910.468 768 955.405L665.6 778.043C712.3 751.081 751.081 712.3 778.043 665.6C805.005 618.9 819.2 565.925 819.2 512H1024Z" fill="#56F16F"/>
<path d="M768 68.595C845.834 113.532 910.468 178.166 955.405 256C1000.34 333.834 1024 422.125 1024 512L819.2 512C819.2 458.075 805.005 405.1 778.043 358.4C751.081 311.7 712.3 272.919 665.6 245.957L768 68.595Z" fill="#F1E256"/>
<path d="M256 68.595C333.834 23.6576 422.125 -1.07175e-06 512 0C601.875 1.07175e-06 690.166 23.6576 768 68.595L665.6 245.957C618.9 218.995 565.925 204.8 512 204.8C458.075 204.8 405.1 218.995 358.4 245.957L256 68.595Z" fill="#F19756"/>
<path d="M0 512C7.8571e-06 422.125 23.6576 333.834 68.595 256C113.532 178.166 178.166 113.532 256 68.595L358.4 245.957C311.7 272.919 272.919 311.7 245.957 358.4C218.995 405.1 204.8 458.075 204.8 512L0 512Z" fill="#F15656"/>
</svg>
